<svg xmlns="http://www.w3.org/2000/svg" viewBox="0 0 422.89 478.36"><defs><style>.cls-1{fill:none;stroke:#f7931e;stroke-miterlimit:10;stroke-width:24.08px;}.cls-2{fill:#f7931e;}</style></defs><g id="Layer_2" data-name="Layer 2"><g id="Layer_1-2" data-name="Layer 1"><line class="cls-1" x1="12.04" y1="168.4" x2="410.85" y2="168.4"/><rect class="cls-2" x="51.04" y="204.99" width="76.25" height="44.27" rx="12.77"/><rect class="cls-2" x="173.32" y="204.99" width="76.25" height="44.27" rx="12.77"/><rect class="cls-2" x="295.07" y="204.99" width="76.25" height="44.27" rx="12.77"/><rect class="cls-2" x="51.04" y="284.4" width="76.25" height="44.27" rx="12.77"/><rect class="cls-2" x="173.32" y="284.4" width="76.25" height="44.27" rx="12.77"/><rect class="cls-2" x="295.07" y="284.4" width="76.25" height="44.27" rx="12.77"/><rect class="cls-2" x="51.04" y="363.81" width="76.25" height="44.27" rx="12.77"/><rect class="cls-2" x="173.32" y="363.81" width="76.25" height="44.27" rx="12.77"/><rect class="cls-2" x="295.07" y="363.81" width="76.25" height="44.27" rx="12.77"/><path class="cls-2" d="M314.52,118.65c-10.06,0-18.24-9.78-18.24-21.8V22c0-12,8.18-21.8,18.24-21.8S332.75,10,332.75,22V96.85C332.75,108.87,324.57,118.65,314.52,118.65Z"/><path class="cls-2" d="M107.91,118.83C98,118.83,89.85,109,89.85,97V21.87C89.85,9.81,98,0,107.91,0S126,9.81,126,21.87V97C126,109,117.87,118.83,107.91,118.83Z"/><path class="cls-2" d="M396.4,55.47H344.62V79.55H396.4A2.44,2.44,0,0,1,398.81,82V451.87a2.44,2.44,0,0,1-2.41,2.41H26.49a2.44,2.44,0,0,1-2.41-2.41V82a2.45,2.45,0,0,1,2.41-2.41H77.81V55.47H26.49A26.52,26.52,0,0,0,0,82V451.87a26.52,26.52,0,0,0,26.49,26.49H396.4a26.52,26.52,0,0,0,26.49-26.49V82A26.52,26.52,0,0,0,396.4,55.47Z"/><rect class="cls-2" x="138.02" y="55.47" width="146.4" height="24.08"/></g></g></svg>