<svg xmlns="http://www.w3.org/2000/svg" viewBox="0 0 351.19 397.26"><defs><style>.cls-1{fill:none;stroke:#f7931e;stroke-miterlimit:10;stroke-width:20px;}.cls-2{fill:#f7931e;}</style></defs><g id="Layer_2" data-name="Layer 2"><g id="Layer_1-2" data-name="Layer 1"><line class="cls-1" x1="10" y1="139.85" x2="341.19" y2="139.85"/><rect class="cls-2" x="42.38" y="170.23" width="63.32" height="36.77" rx="10.61"/><rect class="cls-2" x="143.94" y="170.23" width="63.32" height="36.77" rx="10.61"/><rect class="cls-2" x="245.04" y="170.23" width="63.32" height="36.77" rx="10.61"/><rect class="cls-2" x="42.38" y="236.18" width="63.32" height="36.77" rx="10.61"/><rect class="cls-2" x="143.94" y="236.18" width="63.32" height="36.77" rx="10.61"/><rect class="cls-2" x="245.04" y="236.18" width="63.32" height="36.77" rx="10.61"/><rect class="cls-2" x="42.38" y="302.13" width="63.32" height="36.77" rx="10.61"/><rect class="cls-2" x="143.94" y="302.13" width="63.32" height="36.77" rx="10.61"/><rect class="cls-2" x="245.04" y="302.13" width="63.32" height="36.77" rx="10.61"/><path class="cls-2" d="M261.19,98.53c-8.35,0-15.14-8.12-15.14-18.1V18.26c0-10,6.79-18.11,15.14-18.11s15.15,8.12,15.15,18.11V80.43C276.34,90.41,269.54,98.53,261.19,98.53Z"/><path class="cls-2" d="M89.62,98.68c-8.27,0-15-8.15-15-18.16V18.16c0-10,6.73-18.16,15-18.16s15,8.15,15,18.16V80.52C104.62,90.53,97.89,98.68,89.62,98.68Z"/><path class="cls-2" d="M329.19,46.06h-43v20h43a2,2,0,0,1,2,2v307.2a2,2,0,0,1-2,2H22a2,2,0,0,1-2-2V68.06a2,2,0,0,1,2-2H64.62v-20H22a22,22,0,0,0-22,22v307.2a22,22,0,0,0,22,22H329.19a22,22,0,0,0,22-22V68.06A22,22,0,0,0,329.19,46.06Z"/><rect class="cls-2" x="114.62" y="46.06" width="121.57" height="20"/></g></g></svg>