<svg xmlns="http://www.w3.org/2000/svg" viewBox="0 0 489.24 496.29"><defs><style>.cls-1{fill:#f7931e;}</style></defs><g id="Layer_2" data-name="Layer 2"><g id="Layer_1-2" data-name="Layer 1"><path class="cls-1" d="M105.71,20A51.15,51.15,0,1,1,54.57,71.14,51.2,51.2,0,0,1,105.71,20m0-20a71.15,71.15,0,1,0,71.15,71.14A71.14,71.14,0,0,0,105.71,0Z"/><path class="cls-1" d="M383.53,20a51.15,51.15,0,1,1-51.15,51.14A51.2,51.2,0,0,1,383.53,20m0-20a71.15,71.15,0,1,0,71.14,71.14A71.14,71.14,0,0,0,383.53,0Z"/><path class="cls-1" d="M383.53,152.5h0a105.2,105.2,0,0,0-51.21,13.22,90.9,90.9,0,0,1,3,21.64,85.67,85.67,0,0,1,133.89,70.86V349a9.3,9.3,0,0,1-9.29,9.28H368.68A128.49,128.49,0,0,1,370,376.22v2.07h90A29.28,29.28,0,0,0,489.24,349V258.22A105.71,105.71,0,0,0,383.53,152.5Z"/><path class="cls-1" d="M244.23,290.5A85.83,85.83,0,0,1,330,376.22V467a9.3,9.3,0,0,1-9.29,9.28H167.8a9.29,9.29,0,0,1-9.28-9.28V376.22a85.82,85.82,0,0,1,85.71-85.72m0-20h0A105.71,105.71,0,0,0,138.52,376.22V467a29.28,29.28,0,0,0,29.28,29.28H320.66A29.29,29.29,0,0,0,350,467V376.22A105.72,105.72,0,0,0,244.23,270.5Z"/><path class="cls-1" d="M244.23,138a51.15,51.15,0,1,1-51.14,51.15A51.2,51.2,0,0,1,244.23,138m0-20a71.15,71.15,0,1,0,71.14,71.15A71.14,71.14,0,0,0,244.23,118Z"/><path class="cls-1" d="M118.52,376.22a128.48,128.48,0,0,1,1.26-17.93H29.29A9.3,9.3,0,0,1,20,349V258.22a85.66,85.66,0,0,1,133.12-71.37,90.31,90.31,0,0,1,3.13-21.51,105.34,105.34,0,0,0-50.54-12.84h0A105.71,105.71,0,0,0,0,258.22V349a29.28,29.28,0,0,0,29.29,29.28h89.23Z"/></g></g></svg>