<svg xmlns="http://www.w3.org/2000/svg" viewBox="0 0 420.69 369.25"><defs><style>.cls-1,.cls-2{fill:none;stroke:#f7931e;stroke-miterlimit:10;stroke-width:20px;}.cls-2{stroke-linecap:round;}.cls-3{fill:#f7931e;}</style></defs><g id="Layer_2" data-name="Layer 2"><g id="Layer_1-2" data-name="Layer 1"><path class="cls-1" d="M194.11,10V78.9a7.63,7.63,0,0,0,7.83,7.62l77.54-2.14"/><line class="cls-2" x1="59.04" y1="70.9" x2="158.41" y2="70.9"/><line class="cls-2" x1="59.04" y1="141.76" x2="223.52" y2="141.76"/><line class="cls-2" x1="59.04" y1="283.48" x2="158.41" y2="283.48"/><path class="cls-3" d="M274.54,296.79,273,298.36l-2.1.76-1.39.5v47.63a2,2,0,0,1-2,2H22a2,2,0,0,1-2-2V22a2,2,0,0,1,2-2H194.11a11.38,11.38,0,0,1,8.09,3.35l.25.26,63.89,55.25a11.36,11.36,0,0,1,3.14,7.87v93.68l20-20V86.73a31.22,31.22,0,0,0-9.21-22.23l-.25-.25-64-55.32A31.26,31.26,0,0,0,194.11,0H22A22,22,0,0,0,0,22V347.25a22,22,0,0,0,22,22H267.48a22,22,0,0,0,22-22v-65.4Z"/><path class="cls-3" d="M385.58,109.92h0A15.34,15.34,0,0,1,396,114.65a15.57,15.57,0,0,1,4.7,9.64,7.25,7.25,0,0,1-1.74,5.69L256.48,272.43,227.81,282.8l10.37-28.67L380.63,111.69a6.93,6.93,0,0,1,4.95-1.77m0-20a26.63,26.63,0,0,0-19.09,7.62l-145.6,145.6-18.24,50.4c-2.6,7.17,3.93,15,11.11,15a9.63,9.63,0,0,0,3.31-.58l50.4-18.24,145.59-145.6c11.23-11.22,9.9-30.75-3-43.61h0a35.08,35.08,0,0,0-24.52-10.59Z"/><line class="cls-2" x1="59.04" y1="212.62" x2="223.52" y2="212.62"/></g></g></svg>